<?xml version="1.0" encoding="UTF-8"?>
<svg xmlns="http://www.w3.org/2000/svg" xmlns:xlink="http://www.w3.org/1999/xlink" width="80px" height="50px" viewBox="0 0 79 50" version="1.1">
<g id="surface1">
<rect x="0" y="0" width="79" height="50" style="fill:rgb(0%,0%,0%);fill-opacity:1;stroke:none;"/>
<path style=" stroke:none;fill-rule:nonzero;fill:rgb(100%,100%,100%);fill-opacity:1;" d="M 26.859375 23.511719 C 26.121094 23.511719 25.175781 24.042969 24.753906 24.679688 C 24.542969 25.105469 24.226562 25.425781 23.910156 25.425781 C 22.960938 25.636719 21.910156 27.234375 22.121094 28.085938 C 22.332031 29.148438 23.171875 29.574219 25.070312 29.789062 C 28.019531 30.210938 33.074219 32.234375 38.128906 35 C 43.1875 37.871094 45.082031 38.828125 45.503906 38.828125 C 45.820312 38.828125 46.980469 39.679688 48.03125 40.636719 C 48.558594 41.171875 49.402344 41.808594 49.824219 42.128906 C 51.402344 43.085938 52.457031 42.871094 53.507812 41.171875 C 53.71875 40.851562 53.929688 40.636719 54.140625 40.746094 C 54.5625 40.851562 55.511719 40.425781 55.828125 39.894531 C 56.039062 39.363281 56.039062 38.402344 55.617188 38.085938 C 54.984375 37.445312 54.457031 37.339844 51.613281 37.128906 C 48.558594 37.019531 47.085938 36.597656 45.1875 35.53125 C 44.660156 35.210938 43.714844 34.789062 43.1875 34.46875 C 42.660156 34.148438 41.183594 33.296875 40.027344 32.660156 C 37.5 31.171875 33.917969 29.148438 32.335938 28.402344 C 30.863281 27.554688 29.597656 26.488281 28.757812 25.210938 C 28.019531 24.042969 27.492188 23.511719 26.859375 23.511719 Z M 26.070312 27.433594 C 26.097656 27.421875 26.070312 27.5 26.015625 27.660156 C 25.910156 28.085938 26.015625 28.085938 27.070312 28.402344 C 28.125 28.722656 29.492188 29.363281 29.492188 29.574219 C 29.492188 29.679688 29.28125 29.574219 28.757812 29.363281 C 28.441406 29.253906 27.597656 28.9375 26.964844 28.828125 C 26.226562 28.617188 25.703125 28.402344 25.597656 28.296875 C 25.492188 28.191406 25.597656 27.980469 25.808594 27.765625 C 25.964844 27.554688 26.042969 27.445312 26.070312 27.433594 Z M 47.1875 38.296875 C 47.292969 38.296875 48.242188 38.9375 49.507812 40 C 50.558594 40.957031 50.769531 40.957031 51.296875 40.851562 C 52.035156 40.636719 52.351562 40.851562 51.71875 41.171875 C 51.085938 41.488281 50.875 41.488281 49.296875 40.210938 C 48.558594 39.46875 47.714844 38.828125 47.398438 38.722656 C 47.085938 38.617188 46.875 38.296875 47.1875 38.296875 Z M 53.335938 38.617188 C 53.382812 38.617188 53.445312 38.617188 53.507812 38.617188 C 53.71875 38.617188 53.929688 38.722656 53.929688 38.828125 C 53.929688 39.148438 53.613281 39.148438 53.296875 38.9375 C 53.023438 38.65625 52.988281 38.621094 53.335938 38.617188 Z M 53.335938 38.617188 "/>
<path style=" stroke:none;fill-rule:nonzero;fill:rgb(100%,100%,100%);fill-opacity:1;" d="M 35.707031 34.042969 L 34.023438 34.894531 C 30.96875 36.277344 29.703125 36.488281 25.175781 36.277344 C 24.015625 36.171875 23.59375 36.277344 22.960938 36.597656 C 22.226562 37.019531 22.015625 37.445312 22.121094 38.296875 C 22.332031 38.9375 22.648438 39.253906 23.59375 39.574219 C 24.121094 39.789062 24.332031 40 24.4375 40.425781 C 24.542969 40.746094 24.859375 41.277344 25.175781 41.488281 C 26.332031 42.445312 27.914062 41.914062 30.546875 39.894531 C 31.285156 39.363281 32.441406 38.722656 33.074219 38.511719 C 34.023438 38.085938 35.917969 37.234375 38.339844 36.171875 L 38.867188 35.957031 L 38.023438 35.425781 C 37.5 35.105469 36.761719 34.679688 36.445312 34.46875 Z M 24.894531 37.378906 C 24.976562 37.375 25.042969 37.394531 25.070312 37.445312 C 25.175781 37.445312 25.070312 37.660156 24.964844 37.765625 C 24.648438 37.980469 24.4375 37.980469 24.332031 37.765625 C 24.253906 37.605469 24.648438 37.386719 24.894531 37.378906 Z M 25.929688 38.765625 C 25.976562 38.746094 26.101562 38.941406 26.332031 39.363281 C 26.753906 40.210938 26.859375 40.320312 27.703125 40 C 28.125 39.894531 28.125 39.894531 27.808594 40.320312 C 27.597656 40.53125 27.28125 40.636719 26.859375 40.636719 C 26.332031 40.636719 26.226562 40.636719 26.121094 39.894531 C 25.945312 39.175781 25.867188 38.792969 25.929688 38.765625 Z M 25.929688 38.765625 "/>
<path style=" stroke:none;fill-rule:nonzero;fill:rgb(100%,100%,100%);fill-opacity:1;" d="M 52.417969 24.140625 C 52.207031 24.140625 52 24.175781 51.824219 24.253906 C 51.613281 24.363281 51.191406 24.894531 50.769531 25.425781 C 49.613281 27.128906 48.347656 28.085938 45.714844 29.363281 C 42.027344 31.0625 40.027344 32.019531 40.132812 32.128906 C 40.132812 32.234375 40.871094 32.660156 41.605469 33.085938 L 43.082031 33.9375 L 44.976562 33.191406 C 47.820312 32.019531 51.507812 30.957031 53.613281 30.746094 C 55.933594 30.425781 56.039062 30.425781 56.5625 29.894531 C 56.984375 29.363281 57.089844 28.402344 56.5625 27.660156 C 56.457031 27.339844 55.933594 26.808594 55.40625 26.488281 C 54.773438 26.171875 54.457031 25.746094 54.457031 25.53125 C 54.457031 24.839844 53.34375 24.148438 52.417969 24.140625 Z M 53.191406 28.085938 L 53.296875 28.617188 C 53.507812 29.148438 53.089844 29.574219 52.457031 29.574219 C 52.246094 29.574219 51.507812 29.789062 50.769531 30 C 50.136719 30.105469 49.613281 30.210938 49.613281 30.210938 C 49.613281 30 50.035156 29.789062 51.613281 29.46875 C 52.878906 29.148438 52.984375 29.148438 53.089844 28.617188 Z M 53.191406 28.085938 "/>
<path style=" stroke:none;fill-rule:nonzero;fill:rgb(100%,100%,100%);fill-opacity:1;" d="M 39.289062 23.828125 C 39.183594 23.828125 39.078125 23.9375 39.078125 24.253906 C 39.078125 24.253906 38.972656 24.894531 39.183594 24.789062 C 39.394531 24.789062 39.816406 25 39.710938 24.363281 C 39.710938 24.042969 39.5 23.828125 39.289062 23.828125 Z M 39.289062 23.828125 "/>
<path style=" stroke:none;fill-rule:nonzero;fill:rgb(100%,100%,100%);fill-opacity:1;" d="M 39.078125 26.914062 C 38.972656 26.382812 38.972656 26.0625 39.394531 26.0625 C 39.816406 26.0625 39.921875 26.277344 39.710938 26.808594 C 39.5 27.339844 39.289062 27.339844 39.078125 26.914062 Z M 39.078125 26.914062 "/>
<path style=" stroke:none;fill-rule:nonzero;fill:rgb(100%,100%,100%);fill-opacity:1;" d="M 38.445312 23.722656 C 38.339844 23.722656 38.128906 24.042969 38.128906 24.363281 C 38.128906 24.46875 38.128906 24.789062 38.128906 24.894531 C 38.234375 24.894531 38.445312 24.894531 38.550781 24.894531 C 38.761719 24.894531 38.65625 24.253906 38.65625 24.042969 C 38.65625 23.828125 38.550781 23.722656 38.445312 23.722656 Z M 38.445312 23.722656 "/>
<path style=" stroke:none;fill-rule:nonzero;fill:rgb(100%,100%,100%);fill-opacity:1;" d="M 38.234375 26.914062 C 38.023438 26.703125 38.128906 26.0625 38.339844 26.0625 C 38.550781 26.0625 38.65625 26.277344 38.65625 26.597656 C 38.65625 27.019531 38.445312 27.128906 38.234375 26.914062 Z M 38.234375 26.914062 "/>
<path style=" stroke:none;fill-rule:nonzero;fill:rgb(100%,100%,100%);fill-opacity:1;" d="M 40.554688 26.914062 C 40.34375 26.597656 40.449219 26.0625 40.871094 26.0625 C 41.078125 26.0625 41.183594 26.171875 41.183594 26.488281 C 41.078125 26.914062 40.765625 27.128906 40.554688 26.914062 Z M 40.554688 26.914062 "/>
<path style=" stroke:none;fill-rule:nonzero;fill:rgb(100%,100%,100%);fill-opacity:1;" d="M 37.289062 26.703125 C 37.078125 26.488281 37.183594 26.0625 37.5 26.0625 C 37.605469 26.0625 37.710938 26.277344 37.710938 26.488281 C 37.710938 26.808594 37.5 26.914062 37.289062 26.703125 Z M 37.289062 26.703125 "/>
<path style=" stroke:none;fill-rule:nonzero;fill:rgb(100%,100%,100%);fill-opacity:1;" d="M 40.027344 24.789062 C 39.816406 24.574219 40.132812 23.722656 40.34375 23.722656 C 40.660156 23.828125 40.765625 24.789062 40.34375 24.894531 C 40.238281 24.894531 40.027344 24.894531 40.027344 24.789062 Z M 40.027344 24.789062 "/>
<path style=" stroke:none;fill-rule:nonzero;fill:rgb(100%,100%,100%);fill-opacity:1;" d="M 37.078125 24.574219 C 36.972656 24.148438 37.078125 23.722656 37.5 23.722656 C 37.605469 23.722656 37.710938 23.9375 37.710938 24.253906 C 37.710938 24.894531 37.289062 25.105469 37.078125 24.574219 Z M 37.078125 24.574219 "/>
<path style=" stroke:none;fill-rule:nonzero;fill:rgb(100%,100%,100%);fill-opacity:1;" d="M 40.976562 24.253906 C 40.976562 23.828125 41.078125 23.722656 41.289062 23.722656 C 41.5 23.828125 41.605469 23.9375 41.605469 24.253906 C 41.605469 24.574219 41.5 24.789062 41.289062 24.789062 C 41.078125 24.789062 40.976562 24.679688 40.976562 24.253906 Z M 40.976562 24.253906 "/>
<path style=" stroke:none;fill-rule:nonzero;fill:rgb(100%,100%,100%);fill-opacity:1;" d="M 37.710938 29.46875 C 36.761719 29.148438 36.65625 29.042969 35.496094 27.660156 C 34.65625 26.382812 34.550781 26.277344 34.339844 23.722656 C 34.234375 22.234375 34.339844 22.128906 35.285156 22.980469 C 35.8125 23.511719 35.917969 23.722656 36.128906 24.894531 C 36.339844 26.808594 37.078125 27.445312 39.394531 27.445312 C 41.183594 27.445312 41.921875 27.128906 42.34375 26.171875 C 42.449219 25.851562 42.660156 25.320312 42.660156 25.105469 C 42.660156 24.148438 43.082031 23.296875 43.609375 22.980469 C 43.925781 22.765625 44.238281 22.660156 44.34375 22.660156 C 44.554688 22.660156 44.34375 26.0625 44.03125 26.597656 C 43.714844 27.339844 42.238281 29.042969 41.816406 29.253906 C 41.183594 29.46875 38.550781 29.679688 37.710938 29.46875 Z M 37.710938 29.46875 "/>
<path style=" stroke:none;fill-rule:nonzero;fill:rgb(100%,100%,100%);fill-opacity:1;" d="M 39.289062 7.128906 C 37.183594 7.234375 36.972656 7.339844 35.8125 7.871094 C 34.550781 8.511719 33.074219 9.894531 32.441406 11.277344 C 32.019531 12.128906 32.019531 12.445312 32.019531 14.253906 C 32.019531 16.0625 32.019531 16.382812 32.441406 17.128906 C 32.652344 17.660156 32.96875 17.980469 32.96875 17.871094 C 33.074219 17.871094 33.074219 16.914062 33.074219 15.851562 C 33.074219 13.9375 33.074219 13.828125 33.707031 12.445312 C 34.445312 11.0625 35.179688 10.105469 34.96875 10.957031 C 34.761719 11.808594 34.339844 12.660156 34.023438 13.511719 C 33.601562 14.363281 33.496094 14.789062 33.496094 16.382812 C 33.496094 18.085938 33.496094 18.402344 33.179688 18.511719 C 32.546875 18.722656 32.335938 18.9375 32.335938 19.253906 C 32.230469 20 32.757812 20.53125 34.234375 21.171875 C 35.390625 21.597656 35.8125 21.914062 36.128906 22.339844 C 36.445312 22.871094 36.761719 23.191406 37.605469 23.402344 C 37.710938 23.511719 38.761719 23.511719 39.921875 23.511719 L 42.027344 23.402344 L 42.871094 22.554688 C 43.398438 21.914062 43.925781 21.488281 44.554688 21.277344 C 46.558594 20.53125 47.292969 19.042969 45.925781 18.722656 L 45.1875 18.511719 L 45.1875 17.234375 C 45.1875 15.957031 45.292969 15.425781 45.609375 15.425781 C 45.714844 15.425781 45.714844 15.957031 45.714844 16.597656 C 45.714844 17.980469 45.925781 18.085938 46.558594 17.234375 C 47.085938 16.488281 47.1875 13.191406 46.769531 11.703125 C 46.242188 9.789062 44.554688 8.085938 42.449219 7.445312 C 41.710938 7.128906 41.078125 7.128906 39.289062 7.128906 Z M 36.59375 14.722656 C 37.082031 14.691406 37.589844 14.878906 38.023438 15.320312 C 38.867188 16.171875 38.339844 17.871094 36.972656 18.617188 C 35.390625 19.46875 34.550781 18.722656 34.65625 17.019531 C 34.792969 15.625 35.660156 14.777344 36.59375 14.722656 Z M 42.296875 14.722656 C 43.253906 14.699219 44.09375 15.558594 44.238281 17.019531 C 44.34375 17.871094 44.34375 17.980469 43.925781 18.402344 C 42.976562 19.363281 41.710938 18.9375 40.976562 17.554688 C 40.34375 16.597656 40.34375 15.957031 40.976562 15.320312 C 41.402344 14.921875 41.863281 14.730469 42.296875 14.722656 Z M 39.5 17.871094 C 39.710938 17.871094 40.238281 20 40.238281 20.746094 C 40.238281 21.171875 40.238281 21.171875 39.816406 20.851562 C 39.394531 20.636719 39.289062 20.636719 38.867188 20.851562 C 38.339844 21.277344 38.234375 21.171875 38.339844 20.851562 C 38.445312 20.636719 38.445312 20.210938 38.550781 19.894531 C 38.761719 19.042969 39.289062 17.871094 39.5 17.871094 Z M 39.5 17.871094 "/>
</g>
</svg>
